<mxfile host="app.diagrams.net" agent="Mozilla/5.0 (Windows NT 10.0; Win64; x64) AppleWebKit/537.36 (KHTML, like Gecko) Chrome/127.0.0.0 Safari/537.36" version="24.7.6" pages="4">
  <diagram name="Página-1" id="c730oO_F9TpOc3_6USqw">
    <mxGraphModel dx="1114" dy="592" grid="1" gridSize="10" guides="1" tooltips="1" connect="1" arrows="1" fold="1" page="1" pageScale="1" pageWidth="827" pageHeight="1169" math="0" shadow="0">
      <root>
        <mxCell id="0" />
        <mxCell id="1" parent="0" />
        <mxCell id="RQ-Lkt426MjuMKFfEz8Q-1" value="ÍNICIO" style="ellipse;whiteSpace=wrap;html=1;" vertex="1" parent="1">
          <mxGeometry x="354" width="120" height="80" as="geometry" />
        </mxCell>
        <mxCell id="RQ-Lkt426MjuMKFfEz8Q-2" value="" style="endArrow=classic;html=1;rounded=0;exitX=0.558;exitY=1.025;exitDx=0;exitDy=0;exitPerimeter=0;entryX=0.575;entryY=-0.05;entryDx=0;entryDy=0;entryPerimeter=0;" edge="1" parent="1" source="RQ-Lkt426MjuMKFfEz8Q-1" target="RQ-Lkt426MjuMKFfEz8Q-3">
          <mxGeometry width="50" height="50" relative="1" as="geometry">
            <mxPoint x="390" y="330" as="sourcePoint" />
            <mxPoint x="414" y="120" as="targetPoint" />
          </mxGeometry>
        </mxCell>
        <mxCell id="RQ-Lkt426MjuMKFfEz8Q-3" value="NOTA1=8" style="shape=parallelogram;perimeter=parallelogramPerimeter;whiteSpace=wrap;html=1;fixedSize=1;" vertex="1" parent="1">
          <mxGeometry x="354" y="110" width="120" height="60" as="geometry" />
        </mxCell>
        <mxCell id="RQ-Lkt426MjuMKFfEz8Q-4" value="NOTA2=2" style="shape=parallelogram;perimeter=parallelogramPerimeter;whiteSpace=wrap;html=1;fixedSize=1;" vertex="1" parent="1">
          <mxGeometry x="354" y="200" width="120" height="60" as="geometry" />
        </mxCell>
        <mxCell id="RQ-Lkt426MjuMKFfEz8Q-5" value="" style="endArrow=classic;html=1;rounded=0;entryX=0.5;entryY=0;entryDx=0;entryDy=0;exitX=0.5;exitY=1;exitDx=0;exitDy=0;" edge="1" parent="1" source="RQ-Lkt426MjuMKFfEz8Q-3" target="RQ-Lkt426MjuMKFfEz8Q-4">
          <mxGeometry width="50" height="50" relative="1" as="geometry">
            <mxPoint x="390" y="330" as="sourcePoint" />
            <mxPoint x="440" y="280" as="targetPoint" />
          </mxGeometry>
        </mxCell>
        <mxCell id="RQ-Lkt426MjuMKFfEz8Q-6" value="MEDIA=(NOTA1+NOTA2)/2" style="rounded=0;whiteSpace=wrap;html=1;" vertex="1" parent="1">
          <mxGeometry x="310" y="290" width="210" height="60" as="geometry" />
        </mxCell>
        <mxCell id="RQ-Lkt426MjuMKFfEz8Q-7" value="" style="endArrow=classic;html=1;rounded=0;entryX=0.5;entryY=0;entryDx=0;entryDy=0;exitX=0.45;exitY=1;exitDx=0;exitDy=0;exitPerimeter=0;" edge="1" parent="1" source="RQ-Lkt426MjuMKFfEz8Q-4" target="RQ-Lkt426MjuMKFfEz8Q-6">
          <mxGeometry width="50" height="50" relative="1" as="geometry">
            <mxPoint x="390" y="330" as="sourcePoint" />
            <mxPoint x="440" y="280" as="targetPoint" />
          </mxGeometry>
        </mxCell>
        <mxCell id="RQ-Lkt426MjuMKFfEz8Q-8" value="MEDIA&amp;gt;5" style="rhombus;whiteSpace=wrap;html=1;" vertex="1" parent="1">
          <mxGeometry x="374" y="370" width="80" height="80" as="geometry" />
        </mxCell>
        <mxCell id="RQ-Lkt426MjuMKFfEz8Q-9" value="APROVADO!" style="strokeWidth=2;html=1;shape=mxgraph.flowchart.display;whiteSpace=wrap;" vertex="1" parent="1">
          <mxGeometry x="520" y="380" width="100" height="60" as="geometry" />
        </mxCell>
        <mxCell id="RQ-Lkt426MjuMKFfEz8Q-10" value="REPROVADO!" style="strokeWidth=2;html=1;shape=mxgraph.flowchart.display;whiteSpace=wrap;" vertex="1" parent="1">
          <mxGeometry x="200" y="380" width="110" height="60" as="geometry" />
        </mxCell>
        <mxCell id="RQ-Lkt426MjuMKFfEz8Q-11" value="" style="endArrow=classic;html=1;rounded=0;entryX=0.5;entryY=0;entryDx=0;entryDy=0;exitX=0.5;exitY=1;exitDx=0;exitDy=0;" edge="1" parent="1" source="RQ-Lkt426MjuMKFfEz8Q-6" target="RQ-Lkt426MjuMKFfEz8Q-8">
          <mxGeometry width="50" height="50" relative="1" as="geometry">
            <mxPoint x="390" y="330" as="sourcePoint" />
            <mxPoint x="440" y="280" as="targetPoint" />
          </mxGeometry>
        </mxCell>
        <mxCell id="RQ-Lkt426MjuMKFfEz8Q-12" value="" style="endArrow=classic;html=1;rounded=0;entryX=1;entryY=0.5;entryDx=0;entryDy=0;entryPerimeter=0;exitX=0;exitY=0.5;exitDx=0;exitDy=0;" edge="1" parent="1" source="RQ-Lkt426MjuMKFfEz8Q-8" target="RQ-Lkt426MjuMKFfEz8Q-10">
          <mxGeometry width="50" height="50" relative="1" as="geometry">
            <mxPoint x="390" y="330" as="sourcePoint" />
            <mxPoint x="440" y="280" as="targetPoint" />
          </mxGeometry>
        </mxCell>
        <mxCell id="RQ-Lkt426MjuMKFfEz8Q-13" value="" style="endArrow=classic;html=1;rounded=0;entryX=0.1;entryY=0.5;entryDx=0;entryDy=0;entryPerimeter=0;" edge="1" parent="1" source="RQ-Lkt426MjuMKFfEz8Q-8" target="RQ-Lkt426MjuMKFfEz8Q-9">
          <mxGeometry width="50" height="50" relative="1" as="geometry">
            <mxPoint x="390" y="330" as="sourcePoint" />
            <mxPoint x="440" y="280" as="targetPoint" />
          </mxGeometry>
        </mxCell>
      </root>
    </mxGraphModel>
  </diagram>
  <diagram id="9XNzDRJzVs0rdWZBhBNP" name="Página-2">
    <mxGraphModel dx="1114" dy="592" grid="1" gridSize="10" guides="1" tooltips="1" connect="1" arrows="1" fold="1" page="1" pageScale="1" pageWidth="827" pageHeight="1169" math="0" shadow="0">
      <root>
        <mxCell id="0" />
        <mxCell id="1" parent="0" />
        <mxCell id="zgRBXCefq9E3w-Sf9WQo-1" value="ÍNICIO" style="ellipse;whiteSpace=wrap;html=1;" vertex="1" parent="1">
          <mxGeometry x="354" y="20" width="96" height="60" as="geometry" />
        </mxCell>
        <mxCell id="6i63ZYG4ZpEaHEewxWTI-1" value="VALOR1=30" style="shape=parallelogram;perimeter=parallelogramPerimeter;whiteSpace=wrap;html=1;fixedSize=1;" vertex="1" parent="1">
          <mxGeometry x="352" y="110" width="100" height="50" as="geometry" />
        </mxCell>
        <mxCell id="6i63ZYG4ZpEaHEewxWTI-2" value="VALOR2=32" style="shape=parallelogram;perimeter=parallelogramPerimeter;whiteSpace=wrap;html=1;fixedSize=1;" vertex="1" parent="1">
          <mxGeometry x="350" y="190" width="100" height="50" as="geometry" />
        </mxCell>
        <mxCell id="6i63ZYG4ZpEaHEewxWTI-3" value="" style="endArrow=classic;html=1;rounded=0;entryX=0.6;entryY=0.1;entryDx=0;entryDy=0;entryPerimeter=0;" edge="1" parent="1" source="zgRBXCefq9E3w-Sf9WQo-1" target="6i63ZYG4ZpEaHEewxWTI-1">
          <mxGeometry width="50" height="50" relative="1" as="geometry">
            <mxPoint x="390" y="330" as="sourcePoint" />
            <mxPoint x="440" y="280" as="targetPoint" />
          </mxGeometry>
        </mxCell>
        <mxCell id="6i63ZYG4ZpEaHEewxWTI-4" value="" style="endArrow=classic;html=1;rounded=0;entryX=0.59;entryY=0.02;entryDx=0;entryDy=0;entryPerimeter=0;exitX=0.5;exitY=1;exitDx=0;exitDy=0;" edge="1" parent="1" source="6i63ZYG4ZpEaHEewxWTI-1" target="6i63ZYG4ZpEaHEewxWTI-2">
          <mxGeometry width="50" height="50" relative="1" as="geometry">
            <mxPoint x="390" y="330" as="sourcePoint" />
            <mxPoint x="440" y="280" as="targetPoint" />
          </mxGeometry>
        </mxCell>
        <mxCell id="CeH0GR2PFB8opzdwWr4X-1" value="VALOR1&amp;gt;VALOR2" style="strokeWidth=2;html=1;shape=mxgraph.flowchart.decision;whiteSpace=wrap;" vertex="1" parent="1">
          <mxGeometry x="340" y="270" width="130" height="130" as="geometry" />
        </mxCell>
        <mxCell id="LT5AFgHdlDKHYE-_dC0Q-1" value="" style="endArrow=classic;html=1;rounded=0;exitX=0.44;exitY=1;exitDx=0;exitDy=0;exitPerimeter=0;entryX=0.5;entryY=0;entryDx=0;entryDy=0;entryPerimeter=0;" edge="1" parent="1" source="6i63ZYG4ZpEaHEewxWTI-2" target="CeH0GR2PFB8opzdwWr4X-1">
          <mxGeometry width="50" height="50" relative="1" as="geometry">
            <mxPoint x="390" y="330" as="sourcePoint" />
            <mxPoint x="440" y="280" as="targetPoint" />
          </mxGeometry>
        </mxCell>
        <mxCell id="LT5AFgHdlDKHYE-_dC0Q-2" value="&quot;O MAIOR VALOR É: VALOR 1&quot;" style="strokeWidth=2;html=1;shape=mxgraph.flowchart.display;whiteSpace=wrap;" vertex="1" parent="1">
          <mxGeometry x="550" y="305" width="100" height="60" as="geometry" />
        </mxCell>
        <mxCell id="LT5AFgHdlDKHYE-_dC0Q-3" value="" style="endArrow=classic;html=1;rounded=0;entryX=0;entryY=0.4;entryDx=0;entryDy=0;entryPerimeter=0;exitX=0.946;exitY=0.569;exitDx=0;exitDy=0;exitPerimeter=0;" edge="1" parent="1" source="CeH0GR2PFB8opzdwWr4X-1" target="LT5AFgHdlDKHYE-_dC0Q-2">
          <mxGeometry width="50" height="50" relative="1" as="geometry">
            <mxPoint x="390" y="330" as="sourcePoint" />
            <mxPoint x="440" y="280" as="targetPoint" />
          </mxGeometry>
        </mxCell>
        <mxCell id="LT5AFgHdlDKHYE-_dC0Q-4" value="&quot;SEGUE O FLUXO&quot;" style="strokeWidth=2;html=1;shape=mxgraph.flowchart.display;whiteSpace=wrap;" vertex="1" parent="1">
          <mxGeometry x="170" y="305" width="100" height="60" as="geometry" />
        </mxCell>
        <mxCell id="LT5AFgHdlDKHYE-_dC0Q-5" value="" style="endArrow=classic;html=1;rounded=0;entryX=0.98;entryY=0.65;entryDx=0;entryDy=0;entryPerimeter=0;exitX=0.054;exitY=0.531;exitDx=0;exitDy=0;exitPerimeter=0;" edge="1" parent="1" source="CeH0GR2PFB8opzdwWr4X-1" target="LT5AFgHdlDKHYE-_dC0Q-4">
          <mxGeometry width="50" height="50" relative="1" as="geometry">
            <mxPoint x="390" y="330" as="sourcePoint" />
            <mxPoint x="440" y="280" as="targetPoint" />
          </mxGeometry>
        </mxCell>
      </root>
    </mxGraphModel>
  </diagram>
  <diagram id="5EGqYX_jh80Lb1LN9nPS" name="Página-3">
    <mxGraphModel dx="1114" dy="592" grid="1" gridSize="10" guides="1" tooltips="1" connect="1" arrows="1" fold="1" page="1" pageScale="1" pageWidth="827" pageHeight="1169" math="0" shadow="0">
      <root>
        <mxCell id="0" />
        <mxCell id="1" parent="0" />
        <mxCell id="UmCRzn2XRNagFWTJSCF0-2" value="" style="endArrow=classic;html=1;rounded=0;" edge="1" parent="1" target="UmCRzn2XRNagFWTJSCF0-3">
          <mxGeometry width="50" height="50" relative="1" as="geometry">
            <mxPoint x="414" y="90" as="sourcePoint" />
            <mxPoint x="440" y="280" as="targetPoint" />
          </mxGeometry>
        </mxCell>
        <mxCell id="UmCRzn2XRNagFWTJSCF0-3" value="IDADE=19" style="shape=parallelogram;perimeter=parallelogramPerimeter;whiteSpace=wrap;html=1;fixedSize=1;" vertex="1" parent="1">
          <mxGeometry x="354" y="130" width="120" height="60" as="geometry" />
        </mxCell>
        <mxCell id="UmCRzn2XRNagFWTJSCF0-4" value="IDADE&amp;gt;18" style="rhombus;whiteSpace=wrap;html=1;" vertex="1" parent="1">
          <mxGeometry x="374" y="230" width="80" height="80" as="geometry" />
        </mxCell>
        <mxCell id="UmCRzn2XRNagFWTJSCF0-5" value="" style="endArrow=classic;html=1;rounded=0;entryX=0.5;entryY=0;entryDx=0;entryDy=0;exitX=0.442;exitY=1.033;exitDx=0;exitDy=0;exitPerimeter=0;" edge="1" parent="1" source="UmCRzn2XRNagFWTJSCF0-3" target="UmCRzn2XRNagFWTJSCF0-4">
          <mxGeometry width="50" height="50" relative="1" as="geometry">
            <mxPoint x="390" y="330" as="sourcePoint" />
            <mxPoint x="440" y="280" as="targetPoint" />
          </mxGeometry>
        </mxCell>
        <mxCell id="UmCRzn2XRNagFWTJSCF0-6" value="" style="endArrow=classic;html=1;rounded=0;exitX=0.9;exitY=0.538;exitDx=0;exitDy=0;exitPerimeter=0;entryX=0.07;entryY=0.4;entryDx=0;entryDy=0;entryPerimeter=0;" edge="1" parent="1" source="UmCRzn2XRNagFWTJSCF0-4" target="UmCRzn2XRNagFWTJSCF0-7">
          <mxGeometry width="50" height="50" relative="1" as="geometry">
            <mxPoint x="390" y="330" as="sourcePoint" />
            <mxPoint x="570" y="280" as="targetPoint" />
          </mxGeometry>
        </mxCell>
        <mxCell id="UmCRzn2XRNagFWTJSCF0-7" value="&quot;O VOTO É ORBIGATÓRIO&quot;" style="strokeWidth=2;html=1;shape=mxgraph.flowchart.display;whiteSpace=wrap;" vertex="1" parent="1">
          <mxGeometry x="520" y="250" width="100" height="60" as="geometry" />
        </mxCell>
        <mxCell id="UmCRzn2XRNagFWTJSCF0-8" value="&quot;SEGUE O FLUXO&quot;" style="strokeWidth=2;html=1;shape=mxgraph.flowchart.display;whiteSpace=wrap;" vertex="1" parent="1">
          <mxGeometry x="200" y="250" width="100" height="60" as="geometry" />
        </mxCell>
        <mxCell id="UmCRzn2XRNagFWTJSCF0-9" value="" style="endArrow=classic;html=1;rounded=0;entryX=1;entryY=0.5;entryDx=0;entryDy=0;entryPerimeter=0;exitX=0.075;exitY=0.625;exitDx=0;exitDy=0;exitPerimeter=0;" edge="1" parent="1" source="UmCRzn2XRNagFWTJSCF0-4" target="UmCRzn2XRNagFWTJSCF0-8">
          <mxGeometry width="50" height="50" relative="1" as="geometry">
            <mxPoint x="390" y="330" as="sourcePoint" />
            <mxPoint x="440" y="280" as="targetPoint" />
          </mxGeometry>
        </mxCell>
        <mxCell id="vTI4MOFKZSTYkwSR8hgd-2" value="" style="edgeStyle=orthogonalEdgeStyle;rounded=0;orthogonalLoop=1;jettySize=auto;html=1;" edge="1" parent="1" source="vTI4MOFKZSTYkwSR8hgd-1" target="UmCRzn2XRNagFWTJSCF0-3">
          <mxGeometry relative="1" as="geometry" />
        </mxCell>
        <mxCell id="vTI4MOFKZSTYkwSR8hgd-1" value="INÍCIO" style="strokeWidth=2;html=1;shape=mxgraph.flowchart.terminator;whiteSpace=wrap;" vertex="1" parent="1">
          <mxGeometry x="364" y="20" width="100" height="60" as="geometry" />
        </mxCell>
        <mxCell id="vTI4MOFKZSTYkwSR8hgd-3" value="FIM" style="strokeWidth=2;html=1;shape=mxgraph.flowchart.terminator;whiteSpace=wrap;" vertex="1" parent="1">
          <mxGeometry x="374" y="400" width="100" height="60" as="geometry" />
        </mxCell>
        <mxCell id="vTI4MOFKZSTYkwSR8hgd-4" value="" style="endArrow=classic;html=1;rounded=0;entryX=0;entryY=0.5;entryDx=0;entryDy=0;entryPerimeter=0;exitX=0.5;exitY=1;exitDx=0;exitDy=0;exitPerimeter=0;" edge="1" parent="1" source="UmCRzn2XRNagFWTJSCF0-8" target="vTI4MOFKZSTYkwSR8hgd-3">
          <mxGeometry width="50" height="50" relative="1" as="geometry">
            <mxPoint x="390" y="220" as="sourcePoint" />
            <mxPoint x="440" y="170" as="targetPoint" />
            <Array as="points">
              <mxPoint x="250" y="430" />
            </Array>
          </mxGeometry>
        </mxCell>
        <mxCell id="vTI4MOFKZSTYkwSR8hgd-7" value="" style="endArrow=classic;html=1;rounded=0;entryX=0.96;entryY=0.667;entryDx=0;entryDy=0;entryPerimeter=0;" edge="1" parent="1" source="UmCRzn2XRNagFWTJSCF0-7" target="vTI4MOFKZSTYkwSR8hgd-3">
          <mxGeometry width="50" height="50" relative="1" as="geometry">
            <mxPoint x="390" y="220" as="sourcePoint" />
            <mxPoint x="440" y="170" as="targetPoint" />
            <Array as="points">
              <mxPoint x="570" y="440" />
            </Array>
          </mxGeometry>
        </mxCell>
      </root>
    </mxGraphModel>
  </diagram>
  <diagram id="iXUTsmH3wINVAUSZJY1w" name="Página-4">
    <mxGraphModel dx="1114" dy="592" grid="1" gridSize="10" guides="1" tooltips="1" connect="1" arrows="1" fold="1" page="1" pageScale="1" pageWidth="827" pageHeight="1169" math="0" shadow="0">
      <root>
        <mxCell id="0" />
        <mxCell id="1" parent="0" />
        <mxCell id="WPP-slgQx1zyFwqMhNvC-1" value="INÍCIO" style="strokeWidth=2;html=1;shape=mxgraph.flowchart.terminator;whiteSpace=wrap;" vertex="1" parent="1">
          <mxGeometry x="364" y="10" width="100" height="60" as="geometry" />
        </mxCell>
        <mxCell id="WPP-slgQx1zyFwqMhNvC-4" value="&lt;div&gt;NOTA=9&lt;/div&gt;" style="shape=parallelogram;perimeter=parallelogramPerimeter;whiteSpace=wrap;html=1;fixedSize=1;" vertex="1" parent="1">
          <mxGeometry x="354" y="120" width="120" height="60" as="geometry" />
        </mxCell>
        <mxCell id="WPP-slgQx1zyFwqMhNvC-5" value="NOTA2= 7" style="shape=parallelogram;perimeter=parallelogramPerimeter;whiteSpace=wrap;html=1;fixedSize=1;" vertex="1" parent="1">
          <mxGeometry x="354" y="210" width="120" height="60" as="geometry" />
        </mxCell>
        <mxCell id="WPP-slgQx1zyFwqMhNvC-6" value="MEDIA= (NOTA1+NOTA2)/2" style="rounded=0;whiteSpace=wrap;html=1;" vertex="1" parent="1">
          <mxGeometry x="326" y="300" width="176" height="60" as="geometry" />
        </mxCell>
        <mxCell id="WPP-slgQx1zyFwqMhNvC-7" value="MEDIA&amp;gt;=7" style="rhombus;whiteSpace=wrap;html=1;" vertex="1" parent="1">
          <mxGeometry x="374" y="390" width="80" height="80" as="geometry" />
        </mxCell>
        <mxCell id="WPP-slgQx1zyFwqMhNvC-8" value="&quot;VOCÊ ESTÁ APROVADO COM A MÉDIA: &quot;" style="strokeWidth=2;html=1;shape=mxgraph.flowchart.display;whiteSpace=wrap;" vertex="1" parent="1">
          <mxGeometry x="540" y="400" width="133.33" height="80" as="geometry" />
        </mxCell>
        <mxCell id="WPP-slgQx1zyFwqMhNvC-9" value="&quot;VOCÊ ESTÁ REPROVADO COM A MÉDIA: .VOCÊ PRECISA ESTUDAR MAIS.&quot;" style="strokeWidth=2;html=1;shape=mxgraph.flowchart.display;whiteSpace=wrap;" vertex="1" parent="1">
          <mxGeometry x="130" y="385" width="183.33" height="110" as="geometry" />
        </mxCell>
        <mxCell id="WPP-slgQx1zyFwqMhNvC-10" value="" style="endArrow=classic;html=1;rounded=0;exitX=0.5;exitY=1;exitDx=0;exitDy=0;exitPerimeter=0;" edge="1" parent="1" source="WPP-slgQx1zyFwqMhNvC-1" target="WPP-slgQx1zyFwqMhNvC-4">
          <mxGeometry width="50" height="50" relative="1" as="geometry">
            <mxPoint x="390" y="330" as="sourcePoint" />
            <mxPoint x="440" y="280" as="targetPoint" />
          </mxGeometry>
        </mxCell>
        <mxCell id="WPP-slgQx1zyFwqMhNvC-11" value="" style="endArrow=classic;html=1;rounded=0;exitX=0.5;exitY=1;exitDx=0;exitDy=0;" edge="1" parent="1" source="WPP-slgQx1zyFwqMhNvC-4" target="WPP-slgQx1zyFwqMhNvC-5">
          <mxGeometry width="50" height="50" relative="1" as="geometry">
            <mxPoint x="390" y="330" as="sourcePoint" />
            <mxPoint x="440" y="280" as="targetPoint" />
          </mxGeometry>
        </mxCell>
        <mxCell id="WPP-slgQx1zyFwqMhNvC-12" style="edgeStyle=orthogonalEdgeStyle;rounded=0;orthogonalLoop=1;jettySize=auto;html=1;entryX=0.807;entryY=0;entryDx=0;entryDy=0;entryPerimeter=0;" edge="1" parent="1" source="WPP-slgQx1zyFwqMhNvC-5" target="WPP-slgQx1zyFwqMhNvC-6">
          <mxGeometry relative="1" as="geometry" />
        </mxCell>
        <mxCell id="WPP-slgQx1zyFwqMhNvC-13" value="" style="endArrow=classic;html=1;rounded=0;entryX=0.45;entryY=0.125;entryDx=0;entryDy=0;entryPerimeter=0;exitX=0.557;exitY=1.05;exitDx=0;exitDy=0;exitPerimeter=0;" edge="1" parent="1" source="WPP-slgQx1zyFwqMhNvC-6" target="WPP-slgQx1zyFwqMhNvC-7">
          <mxGeometry width="50" height="50" relative="1" as="geometry">
            <mxPoint x="390" y="330" as="sourcePoint" />
            <mxPoint x="440" y="280" as="targetPoint" />
          </mxGeometry>
        </mxCell>
        <mxCell id="WPP-slgQx1zyFwqMhNvC-14" value="" style="endArrow=classic;html=1;rounded=0;entryX=0.925;entryY=0.513;entryDx=0;entryDy=0;entryPerimeter=0;" edge="1" parent="1" source="WPP-slgQx1zyFwqMhNvC-8" target="WPP-slgQx1zyFwqMhNvC-7">
          <mxGeometry width="50" height="50" relative="1" as="geometry">
            <mxPoint x="390" y="330" as="sourcePoint" />
            <mxPoint x="440" y="280" as="targetPoint" />
          </mxGeometry>
        </mxCell>
        <mxCell id="WPP-slgQx1zyFwqMhNvC-15" value="" style="endArrow=classic;html=1;rounded=0;entryX=0;entryY=0.5;entryDx=0;entryDy=0;exitX=0.998;exitY=0.427;exitDx=0;exitDy=0;exitPerimeter=0;" edge="1" parent="1" source="WPP-slgQx1zyFwqMhNvC-9" target="WPP-slgQx1zyFwqMhNvC-7">
          <mxGeometry width="50" height="50" relative="1" as="geometry">
            <mxPoint x="390" y="330" as="sourcePoint" />
            <mxPoint x="440" y="280" as="targetPoint" />
          </mxGeometry>
        </mxCell>
        <mxCell id="WPP-slgQx1zyFwqMhNvC-16" value="FIM" style="strokeWidth=2;html=1;shape=mxgraph.flowchart.terminator;whiteSpace=wrap;" vertex="1" parent="1">
          <mxGeometry x="364" y="530" width="100" height="60" as="geometry" />
        </mxCell>
        <mxCell id="WPP-slgQx1zyFwqMhNvC-17" value="" style="endArrow=classic;html=1;rounded=0;entryX=1;entryY=0.5;entryDx=0;entryDy=0;entryPerimeter=0;exitX=0.6;exitY=1;exitDx=0;exitDy=0;exitPerimeter=0;" edge="1" parent="1" source="WPP-slgQx1zyFwqMhNvC-8" target="WPP-slgQx1zyFwqMhNvC-16">
          <mxGeometry width="50" height="50" relative="1" as="geometry">
            <mxPoint x="390" y="430" as="sourcePoint" />
            <mxPoint x="440" y="380" as="targetPoint" />
            <Array as="points">
              <mxPoint x="610" y="560" />
            </Array>
          </mxGeometry>
        </mxCell>
        <mxCell id="WPP-slgQx1zyFwqMhNvC-18" value="" style="endArrow=classic;html=1;rounded=0;entryX=0.02;entryY=0.25;entryDx=0;entryDy=0;entryPerimeter=0;exitX=0.655;exitY=1.027;exitDx=0;exitDy=0;exitPerimeter=0;" edge="1" parent="1" source="WPP-slgQx1zyFwqMhNvC-9" target="WPP-slgQx1zyFwqMhNvC-16">
          <mxGeometry width="50" height="50" relative="1" as="geometry">
            <mxPoint x="390" y="430" as="sourcePoint" />
            <mxPoint x="440" y="380" as="targetPoint" />
            <Array as="points">
              <mxPoint x="250" y="540" />
            </Array>
          </mxGeometry>
        </mxCell>
      </root>
    </mxGraphModel>
  </diagram>
</mxfile>
